<svg id="visual" viewBox="0 0 900 600" width="900" height="600" xmlns="http://www.w3.org/2000/svg" xmlns:xlink="http://www.w3.org/1999/xlink" version="1.1"><path d="M0 49L100 49L100 49L200 49L200 49L300 49L300 49L400 49L400 61L500 61L500 49L600 49L600 55L700 55L700 55L800 55L800 55L900 55L900 55L900 0L900 0L800 0L800 0L700 0L700 0L600 0L600 0L500 0L500 0L400 0L400 0L300 0L300 0L200 0L200 0L100 0L100 0L0 0Z" fill="#f9f4e7"></path><path d="M0 73L100 73L100 73L200 73L200 73L300 73L300 73L400 73L400 85L500 85L500 73L600 73L600 79L700 79L700 79L800 79L800 79L900 79L900 79L900 53L900 53L800 53L800 53L700 53L700 53L600 53L600 47L500 47L500 59L400 59L400 47L300 47L300 47L200 47L200 47L100 47L100 47L0 47Z" fill="#f1ead9"></path><path d="M0 181L100 181L100 187L200 187L200 175L300 175L300 193L400 193L400 187L500 187L500 193L600 193L600 187L700 187L700 181L800 181L800 175L900 175L900 187L900 77L900 77L800 77L800 77L700 77L700 77L600 77L600 71L500 71L500 83L400 83L400 71L300 71L300 71L200 71L200 71L100 71L100 71L0 71Z" fill="#eae0cb"></path><path d="M0 205L100 205L100 211L200 211L200 199L300 199L300 217L400 217L400 211L500 211L500 217L600 217L600 211L700 211L700 205L800 205L800 199L900 199L900 211L900 185L900 173L800 173L800 179L700 179L700 185L600 185L600 191L500 191L500 185L400 185L400 191L300 191L300 173L200 173L200 185L100 185L100 179L0 179Z" fill="#e2d6bd"></path><path d="M0 235L100 235L100 235L200 235L200 229L300 229L300 241L400 241L400 235L500 235L500 247L600 247L600 235L700 235L700 235L800 235L800 229L900 229L900 235L900 209L900 197L800 197L800 203L700 203L700 209L600 209L600 215L500 215L500 209L400 209L400 215L300 215L300 197L200 197L200 209L100 209L100 203L0 203Z" fill="#dbcbaf"></path><path d="M0 355L100 355L100 361L200 361L200 361L300 361L300 361L400 361L400 367L500 367L500 361L600 361L600 355L700 355L700 361L800 361L800 355L900 355L900 355L900 233L900 227L800 227L800 233L700 233L700 233L600 233L600 245L500 245L500 233L400 233L400 239L300 239L300 227L200 227L200 233L100 233L100 233L0 233Z" fill="#d8c7a9"></path><path d="M0 433L100 433L100 427L200 427L200 427L300 427L300 427L400 427L400 433L500 433L500 427L600 427L600 433L700 433L700 427L800 427L800 427L900 427L900 433L900 353L900 353L800 353L800 359L700 359L700 353L600 353L600 359L500 359L500 365L400 365L400 359L300 359L300 359L200 359L200 359L100 359L100 353L0 353Z" fill="#d8c7a9"></path><path d="M0 475L100 475L100 475L200 475L200 475L300 475L300 475L400 475L400 475L500 475L500 475L600 475L600 475L700 475L700 475L800 475L800 475L900 475L900 481L900 431L900 425L800 425L800 425L700 425L700 431L600 431L600 425L500 425L500 431L400 431L400 425L300 425L300 425L200 425L200 425L100 425L100 431L0 431Z" fill="#dbcbaf"></path><path d="M0 499L100 499L100 499L200 499L200 499L300 499L300 499L400 499L400 499L500 499L500 499L600 499L600 499L700 499L700 499L800 499L800 499L900 499L900 505L900 479L900 473L800 473L800 473L700 473L700 473L600 473L600 473L500 473L500 473L400 473L400 473L300 473L300 473L200 473L200 473L100 473L100 473L0 473Z" fill="#e2d6bd"></path><path d="M0 529L100 529L100 529L200 529L200 529L300 529L300 529L400 529L400 529L500 529L500 529L600 529L600 529L700 529L700 529L800 529L800 529L900 529L900 535L900 503L900 497L800 497L800 497L700 497L700 497L600 497L600 497L500 497L500 497L400 497L400 497L300 497L300 497L200 497L200 497L100 497L100 497L0 497Z" fill="#eae0cb"></path><path d="M0 565L100 565L100 565L200 565L200 565L300 565L300 571L400 571L400 565L500 565L500 571L600 571L600 565L700 565L700 565L800 565L800 565L900 565L900 571L900 533L900 527L800 527L800 527L700 527L700 527L600 527L600 527L500 527L500 527L400 527L400 527L300 527L300 527L200 527L200 527L100 527L100 527L0 527Z" fill="#f1ead9"></path><path d="M0 601L100 601L100 601L200 601L200 601L300 601L300 601L400 601L400 601L500 601L500 601L600 601L600 601L700 601L700 601L800 601L800 601L900 601L900 601L900 569L900 563L800 563L800 563L700 563L700 563L600 563L600 569L500 569L500 563L400 563L400 569L300 569L300 563L200 563L200 563L100 563L100 563L0 563Z" fill="#f9f4e7"></path></svg>